<svg width="25" height="25" viewBox="0 0 40 40" fill="none" xmlns="http://www.w3.org/2000/svg">
<path d="M2.68253e-06 13.655C-0.00105166 12.1232 0.308705 10.6062 0.911536 9.19093C1.51437 7.77566 2.39843 6.48989 3.5131 5.40727C4.62777 4.32465 5.95115 3.46643 7.40746 2.88176C8.86378 2.29709 10.4244 1.99746 12 2.00002H28C34.626 2.00002 40 7.24029 40 13.655V37H12C5.374 37 2.68253e-06 31.7597 2.68253e-06 25.345V13.655ZM36 33.1111V13.655C35.9947 11.5949 35.1498 9.62075 33.6503 8.1651C32.1508 6.70946 30.119 5.89095 28 5.8889H12C10.9497 5.88634 9.90921 6.08539 8.9382 6.47462C7.96719 6.86385 7.08476 7.43562 6.34152 8.15712C5.59829 8.87863 5.00886 9.73569 4.60705 10.6791C4.20524 11.6226 3.99895 12.6339 4 13.655V25.345C4.00529 27.4051 4.85023 29.3793 6.34972 30.8349C7.84921 32.2906 9.88099 33.1091 12 33.1111H36ZM24 17.5556H28V21.4445H24V17.5556ZM12 17.5556H16V21.4445H12V17.5556Z" fill="#6FC2C5"/>
</svg>
