<svg width="100" height="100" viewBox="0 0 100 100" fill="none" xmlns="http://www.w3.org/2000/svg">
<g clip-path="url(#clip0_35_112)">
<path d="M96.1076 30.6251C93.5983 24.6488 89.9478 19.2168 85.3595 14.6318C80.7849 10.0388 75.3509 6.3871 69.366 3.88403C63.2349 1.30737 56.6474 -0.0134191 49.9948 0.000102783H49.7711C43.0046 0.0335849 36.4618 1.37287 30.2992 4.00679C24.3656 6.53553 18.9826 10.1937 14.4511 14.7769C9.90726 19.3516 6.29855 24.7646 3.82602 30.7144C1.25939 36.9014 -0.0411281 43.5383 0.00099128 50.2344C0.0345441 57.9799 1.89114 65.6697 5.35827 72.5447V89.5089C5.35827 92.3438 7.66223 94.6429 10.4919 94.6429H27.4696C34.3913 98.1282 42.0294 99.9621 49.7823 100H50.0171C56.7053 100 63.181 98.7054 69.2877 96.1719C75.2423 93.6987 80.6561 90.0895 85.2253 85.5469C89.8332 80.9822 93.4569 75.6473 95.9957 69.6987C98.6241 63.538 99.9662 56.9867 99.9997 50.2233C100.022 43.4264 98.7023 36.8304 96.1076 30.6251ZM27.6709 55.3572C24.7183 55.3572 22.3136 52.9576 22.3136 50.0001C22.3136 47.0425 24.7183 44.6429 27.6709 44.6429C30.6236 44.6429 33.0282 47.0425 33.0282 50.0001C33.0282 52.9576 30.6348 55.3572 27.6709 55.3572ZM49.9948 55.3572C47.0421 55.3572 44.6375 52.9576 44.6375 50.0001C44.6375 47.0425 47.0421 44.6429 49.9948 44.6429C52.9474 44.6429 55.352 47.0425 55.352 50.0001C55.352 52.9576 52.9474 55.3572 49.9948 55.3572ZM72.3186 55.3572C69.366 55.3572 66.9613 52.9576 66.9613 50.0001C66.9613 47.0425 69.366 44.6429 72.3186 44.6429C75.2713 44.6429 77.6759 47.0425 77.6759 50.0001C77.6759 52.9576 75.2713 55.3572 72.3186 55.3572Z" fill="#845B60"/>
</g>
<defs>
<clipPath id="clip0_35_112">
<rect width="100" height="100" fill="white"/>
</clipPath>
</defs>
</svg>
