<svg width="100" height="100" viewBox="0 0 100 100" fill="none" xmlns="http://www.w3.org/2000/svg">
<path d="M75.7129 24.3066C72.3863 20.9688 68.4383 18.3147 64.0918 16.4941C59.6338 14.621 54.8453 13.6614 50.0098 13.6718H49.8438C40.1074 13.7109 30.9961 17.5195 24.1797 24.4043C17.3535 31.289 13.6328 40.4297 13.6719 50.166C13.7012 56.0546 15.166 61.9043 17.9199 67.0703L18.3594 67.8906V81.6406H32.1094L32.9297 82.08C38.0957 84.8339 43.9453 86.2988 49.834 86.3281H50C59.668 86.3281 68.75 82.5976 75.5957 75.8203C82.4707 69.0039 86.2891 59.8925 86.3477 50.166C86.3672 45.2246 85.4199 40.4394 83.5254 35.9277C81.7036 31.5818 79.0496 27.634 75.7129 24.3066ZM30.4687 54.6875C29.2421 54.6624 28.0742 54.1576 27.2155 53.2812C26.3569 52.4049 25.876 51.2269 25.876 50C25.876 48.7731 26.3569 47.5951 27.2155 46.7187C28.0742 45.8424 29.2421 45.3375 30.4687 45.3125C31.6954 45.3375 32.8633 45.8424 33.722 46.7187C34.5806 47.5951 35.0615 48.7731 35.0615 50C35.0615 51.2269 34.5806 52.4049 33.722 53.2812C32.8633 54.1576 31.6954 54.6624 30.4687 54.6875ZM50 54.6875C48.7734 54.6624 47.6054 54.1576 46.7468 53.2812C45.8881 52.4049 45.4072 51.2269 45.4072 50C45.4072 48.7731 45.8881 47.5951 46.7468 46.7187C47.6054 45.8424 48.7734 45.3375 50 45.3125C51.2266 45.3375 52.3946 45.8424 53.2532 46.7187C54.1119 47.5951 54.5928 48.7731 54.5928 50C54.5928 51.2269 54.1119 52.4049 53.2532 53.2812C52.3946 54.1576 51.2266 54.6624 50 54.6875ZM69.5312 54.6875C68.3046 54.6624 67.1367 54.1576 66.278 53.2812C65.4194 52.4049 64.9385 51.2269 64.9385 50C64.9385 48.7731 65.4194 47.5951 66.278 46.7187C67.1367 45.8424 68.3046 45.3375 69.5312 45.3125C70.7579 45.3375 71.9258 45.8424 72.7845 46.7187C73.6431 47.5951 74.124 48.7731 74.124 50C74.124 51.2269 73.6431 52.4049 72.7845 53.2812C71.9258 54.1576 70.7579 54.6624 69.5312 54.6875Z" fill="#845B60" fill-opacity="0.5"/>
<path d="M64.8438 50C64.8438 51.2432 65.3376 52.4355 66.2167 53.3146C67.0958 54.1936 68.288 54.6875 69.5312 54.6875C70.7745 54.6875 71.9667 54.1936 72.8458 53.3146C73.7249 52.4355 74.2188 51.2432 74.2188 50C74.2188 48.7568 73.7249 47.5645 72.8458 46.6854C71.9667 45.8064 70.7745 45.3125 69.5312 45.3125C68.288 45.3125 67.0958 45.8064 66.2167 46.6854C65.3376 47.5645 64.8438 48.7568 64.8438 50ZM25.7812 50C25.7813 51.2432 26.2751 52.4355 27.1542 53.3146C28.0333 54.1936 29.2255 54.6875 30.4688 54.6875C31.712 54.6875 32.9042 54.1936 33.7833 53.3146C34.6624 52.4355 35.1562 51.2432 35.1562 50C35.1562 48.7568 34.6624 47.5645 33.7833 46.6854C32.9042 45.8064 31.712 45.3125 30.4688 45.3125C29.2255 45.3125 28.0333 45.8064 27.1542 46.6854C26.2751 47.5645 25.7813 48.7568 25.7812 50Z" fill="#845B60"/>
<path d="M90.3516 33.0469C88.1445 27.8027 84.9805 23.0957 80.9473 19.0527C76.9423 15.0332 72.1878 11.8381 66.9531 9.64844C61.582 7.39258 55.8789 6.25 50 6.25H49.8047C43.8867 6.2793 38.1543 7.45117 32.7637 9.75586C27.5738 11.968 22.8639 15.1687 18.8965 19.1797C14.9023 23.2129 11.7676 27.9004 9.59961 33.125C7.35352 38.5352 6.22071 44.2871 6.25 50.2051C6.28314 56.987 7.88762 63.669 10.9375 69.7266V84.5703C10.9375 85.7617 11.4108 86.9043 12.2532 87.7468C13.0957 88.5892 14.2383 89.0625 15.4297 89.0625H30.2832C36.3408 92.1124 43.0228 93.7169 49.8047 93.75H50.0098C55.8594 93.75 61.5332 92.6172 66.875 90.4004C72.0833 88.2368 76.82 85.079 80.8203 81.1035C84.8535 77.1094 88.0273 72.4414 90.2441 67.2363C92.5488 61.8457 93.7207 56.1133 93.75 50.1953C93.7793 44.248 92.627 38.4766 90.3516 33.0469ZM75.5957 75.8203C68.75 82.5977 59.668 86.3281 50 86.3281H49.834C43.9453 86.2988 38.0957 84.834 32.9297 82.0801L32.1094 81.6406H18.3594V67.8906L17.9199 67.0703C15.166 61.9043 13.7012 56.0547 13.6719 50.166C13.6328 40.4297 17.3535 31.2891 24.1797 24.4043C30.9961 17.5195 40.1074 13.7109 49.8438 13.6719H50.0098C54.8926 13.6719 59.6289 14.6191 64.0918 16.4941C68.4473 18.3203 72.3535 20.9473 75.7129 24.3066C79.0625 27.6562 81.6992 31.5723 83.5254 35.9277C85.4199 40.4395 86.3672 45.2246 86.3477 50.166C86.2891 59.8926 82.4707 69.0039 75.5957 75.8203Z" fill="#845B60"/>
<path d="M45.3125 50C45.3125 51.2432 45.8064 52.4355 46.6854 53.3146C47.5645 54.1936 48.7568 54.6875 50 54.6875C51.2432 54.6875 52.4355 54.1936 53.3146 53.3146C54.1936 52.4355 54.6875 51.2432 54.6875 50C54.6875 48.7568 54.1936 47.5645 53.3146 46.6854C52.4355 45.8064 51.2432 45.3125 50 45.3125C48.7568 45.3125 47.5645 45.8064 46.6854 46.6854C45.8064 47.5645 45.3125 48.7568 45.3125 50Z" fill="#845B60"/>
</svg>
