<svg width="25" height="25" viewBox="0 0 40 40" fill="none" xmlns="http://www.w3.org/2000/svg">
<path d="M19.8862 10.6667C19.2648 10.6805 18.648 10.8208 18.0545 11.0833C18.329 11.7694 18.4752 12.5441 18.479 13.3333C18.479 13.9462 18.3941 14.553 18.2291 15.1192C18.0641 15.6854 17.8222 16.1998 17.5173 16.6332C17.2124 17.0665 16.8505 17.4102 16.4521 17.6448C16.0538 17.8793 15.6268 18 15.1956 18C14.6403 17.9945 14.0952 17.7868 13.6125 17.3967C13.2317 19.274 13.276 21.2741 13.7394 23.1135C14.2027 24.953 15.0616 26.5387 16.1942 27.6459C17.3269 28.7531 18.6759 29.3257 20.0503 29.2827C21.4246 29.2397 22.7546 28.5831 23.8518 27.4061C24.9491 26.2291 25.7579 24.5912 26.1638 22.7245C26.5697 20.8578 26.5521 18.8569 26.1134 17.0052C25.6748 15.1536 24.8373 13.545 23.7197 12.4074C22.6021 11.2698 21.2609 10.6608 19.8862 10.6667ZM36.5684 18.7833C33.3888 9.96583 27.094 4 19.8862 4C12.6785 4 6.38191 9.97 3.20401 18.7842C3.06988 19.1613 3 19.5779 3 20.0004C3 20.423 3.06988 20.8396 3.20401 21.2167C6.38367 30.0342 12.6785 36 19.8862 36C27.094 36 33.3905 30.03 36.5684 21.2158C36.7026 20.8387 36.7725 20.4221 36.7725 19.9996C36.7725 19.577 36.7026 19.1604 36.5684 18.7833ZM19.8862 32C14.1021 32 8.79934 27.4167 5.93571 20C8.79934 12.5833 14.1015 8 19.8862 8C25.6709 8 30.9731 12.5833 33.8367 20C30.9737 27.4167 25.6709 32 19.8862 32Z" fill="#6FC2C5"/>
</svg>
