<svg width="30" height="30" viewBox="0 0 30 40" fill="none" xmlns="http://www.w3.org/2000/svg">
<path d="M10 11.6179V28.3798C10 29.658 11.7151 30.4346 13.0359 29.7389L29.0829 21.3579C29.3638 21.212 29.5952 21.0101 29.7556 20.7711C29.9159 20.5321 30 20.2636 30 19.9908C30 19.7179 29.9159 19.4495 29.7556 19.2104C29.5952 18.9714 29.3638 18.7695 29.0829 18.6236L13.0359 10.2589C12.7386 10.101 12.3948 10.012 12.041 10.0011C11.6871 9.99027 11.3362 10.058 11.0253 10.1972C10.7144 10.3363 10.4551 10.5418 10.2746 10.7918C10.0942 11.0419 9.99929 11.3273 10 11.6179Z" fill="black"/>
</svg>
