<svg xmlns="http://www.w3.org/2000/svg" width="30" height="30" viewBox="0 0 30 30" fill="none">
  <rect width="30" height="30" rx="15" fill="white" fill-opacity="0.05"/>
  <path d="M13.125 23.75C18.9931 23.75 23.75 18.9931 23.75 13.125C23.75 7.25688 18.9931 2.5 13.125 2.5C7.25688 2.5 2.5 7.25688 2.5 13.125C2.5 18.9931 7.25688 23.75 13.125 23.75Z" stroke="black" stroke-width="4" stroke-linejoin="round"/>
  <path d="M16.6606 8.96438C16.1968 8.4994 15.6457 8.13066 15.0389 7.87935C14.4322 7.62805 13.7817 7.49913 13.125 7.5C12.4682 7.49913 11.8178 7.62805 11.211 7.87935C10.6043 8.13066 10.0532 8.4994 9.58936 8.96438M20.7637 20.7638L26.0669 26.0669" stroke="black" stroke-width="4" stroke-linecap="round" stroke-linejoin="round"/>
</svg>