<svg xmlns="http://www.w3.org/2000/svg" width="60" height="60" viewBox="0 0 60 60" fill="none">
<path d="M30 34C32.6624 34 35.2651 33.2669 37.4788 31.8934C39.6926 30.5199 41.418 28.5676 42.4368 26.2835C43.4557 23.9995 43.7223 21.4861 43.2029 19.0614C42.6835 16.6366 41.4014 14.4093 39.5187 12.6612C37.6361 10.913 35.2375 9.7225 32.6262 9.24019C30.0149 8.75787 27.3083 9.00542 24.8485 9.95151C22.3887 10.8976 20.2863 12.4998 18.8071 14.5554C17.328 16.611 16.5385 19.0277 16.5385 21.5C16.5385 24.8152 17.9567 27.9946 20.4813 30.3388C23.0058 32.683 26.4298 34 30 34ZM30 37.5714C21.6562 37.5714 5 42.3571 5 51.8571V59H55V51.8571C55 42.3571 38.3438 37.5714 30 37.5714Z" fill="black"/>
</svg>